<svg xmlns="http://www.w3.org/2000/svg" viewBox="0 0 194.875 141.719" height="151.167" width="207.867"><path style="marker:none" d="M35.438 0v17.719h17.718V0H35.438zm17.718 17.719v17.718H35.438v17.72h-17.72v17.718H0V124h17.719V88.594h17.718V124h17.72v-17.719h88.561V124h17.719V88.594h17.718V124h17.719V70.875h-17.719V53.156h-17.719V35.438H141.72v-17.72H124v17.72H70.875v-17.72H53.156zm88.563 0h17.719V0h-17.72v17.719zm0 106.281H106.28v17.719h35.438V124zm-88.563 0v17.719h35.438V124H53.156zm0-70.844h17.719v17.719H53.156V53.156zm70.844 0h17.719v17.719H124V53.156z" color="#000" overflow="visible"/></svg>