<svg xmlns="http://www.w3.org/2000/svg" viewBox="0 0 141.719 141.719" height="151.167" width="151.167"><path style="marker:none" d="M53.156 0v17.719H35.437v17.718H17.72v17.72H0v35.437h35.437v17.687h17.72V88.594h35.437v17.687h17.687V88.594h35.438V53.156H124V35.438h-17.719v-17.72H88.594V0H53.156zm53.125 106.281V124H124v-17.719h-17.719zM124 124v17.719h17.719V124H124zm-17.719 0H88.594v17.719h17.687V124zm-17.687 0v-17.719H53.156V124h35.438zm-35.438 0H35.437v17.719h17.72V124zm-17.719 0v-17.719H17.72V124h17.718zm-17.718 0H0v17.719h17.719V124zm17.718-70.844h17.72v17.719h-17.72V53.156zm53.157 0h17.687v17.719H88.594V53.156z" color="#000" overflow="visible"/></svg>