<svg xmlns="http://www.w3.org/2000/svg" width="141.75" height="141.719"><path style="marker:none" d="M53.156 0v17.719H35.438v17.718h-17.72v17.72H0v35.437h17.719v17.687h17.718V88.594h17.72v17.687h35.437V88.594h17.719v17.687h17.718V88.594h17.719V53.156h-17.719V35.438h-17.719v-17.72H88.594V0H53.156zm70.875 106.281V124h17.719v-17.719h-17.719zm0 17.719h-17.719v17.719h17.72V124zM17.72 106.281H0V124h17.719v-17.719zm0 17.719v17.719h17.718V124H17.72zm17.718-70.844h17.72v17.719h-17.72V53.156zm53.157 0h17.719v17.719h-17.72V53.156z" color="#000" overflow="visible"/></svg>