<svg xmlns="http://www.w3.org/2000/svg" xmlns:xlink="http://www.w3.org/1999/xlink" width="207.867" height="2371" viewBox="0 0 207.867 2371"><svg width="123.337" height="112.063" viewBox="0 0 115.62875 105.05875" id="invader1" y="0"><path d="M13.132 52.53V39.397H38.436V52.53H13.132zm89.364 0H77.192V39.397H102.496V52.53zm.32-26.266V13.132H90.005V0H64.06v13.132H51.569V0H25.624v13.132H12.81v13.132H0V65.66h12.811v26.265h.214v13.133h25.519V91.926H25.945V78.794H89.684v12.812H76.765v13.133H102.709V91.926h.107V65.661h12.813V26.264h-12.813z"></path></svg><svg viewBox="0 0 102.8175 105.06125" height="112.065" width="109.672" id="invader10" y="113"><path d="M38.436 78.794H25.944V52.529h25.305V65.66H38.436v13.133zM89.685 65.66H76.872v13.133h-12.49V52.529h25.303V65.66zm.32-26.265V26.265H77.192V13.132h-12.81V0H38.435v13.132H25.624v13.133H12.81v13.131H0V78.794h12.811v26.267h25.945V91.926H64.06v13.135h25.945V78.794h12.813V39.396H90.004z"></path></svg><svg width="109.672" height="112.064" viewBox="0 0 102.8175 105.06" id="invader11" y="226"><path d="M89.684 52.53v13.132H64.38V52.53h25.303zm-64.059 0H38.437v13.132H13.133V52.53h12.492zm64.38-26.264V13.132h12.813V0H89.683v13.132H76.873v13.134H25.945V13.132H13.132V0H0v13.132h12.81v13.134h12.815V39.4H0v39.396h12.81v13.131h12.815v13.134h51.567V91.926h12.813V78.795h12.813V39.399H77.191V26.266h12.813z"></path></svg><svg viewBox="0 0 102.8175 105.06" height="112.064" width="109.672" id="invader12" y="339"><path d="M38.436 39.397H25.945V26.265h12.491v13.132zm38.438 0H64.38V26.265h12.493v13.132zm13.131-26.265H64.381V0H38.436v13.132H0V52.53h12.811v13.132h12.813v13.133H12.81v13.131H0v13.134h13.132V91.926h12.492v13.134h13.132V78.795H64.06v26.265h13.132V91.926h12.49v13.134h13.135V91.926H90.005V78.795H77.192V65.662h12.813V52.53h12.812V13.132H90.005z"></path></svg><svg width="109.672" height="112.063" viewBox="0 0 102.8175 105.05875" id="invader13" y="452"><path d="M64.38 26.265h12.492v13.132H64.38V26.265zm-38.435 0h12.491v13.132H25.945V26.265zm64.061 13.132V13.132H77.194V0H64.06v13.132H38.757V0H25.625v13.132H12.813v26.265H0v26.264h12.813v26.265h12.81v13.133h13.134V65.66H64.06V105.06h13.134V91.926h12.812V65.661h12.811V39.397h-12.81z"></path></svg><svg width="109.672" height="98.053" viewBox="0 0 102.8175 91.924998" id="invader14" y="565"><path d="M64.38 39.396h12.491V52.53H64.38V39.396zm-38.435 0h12.491V52.53H25.945V39.396zm63.74-26.265v13.134H77.191V13.131H64.38V0H38.437v13.131H25.621v13.134h-12.49V13.131H0V52.53h12.812v26.264H0v13.131h25.945V65.661h12.491v13.133H64.38V65.66h12.491v26.264h25.946V78.794H90.004V52.53h12.813V13.131H89.685z"></path></svg><svg viewBox="0 0 115.62749 105.16625" height="112.177" width="123.336" id="invader15" y="664"><path d="M25.623 39.505h12.813v13.132H13.131V39.505h12.492zM64.06 78.901H51.568V65.77H64.06V78.9zm25.625-39.396h12.811v13.133H77.192V39.505h12.493zm13.133-13.133H77.192V13.134h25.625V0H76.87v.108H64.06V13.24H51.568V.108H38.436v.32H12.813v13.56h25.623v12.385H0V78.9h12.813v13.133h12.81v13.132h13.134V92.034h12.49v13.132H64.38V92.034h12.491v13.132h13.134V92.034h12.813V78.9h12.81V26.373h-12.81z"></path></svg><svg viewBox="0 0 115.63 105.16625" height="112.177" width="123.339" id="invader16" y="777"><path d="M102.496 65.661H90.171V52.53H77.195V39.396H102.496v26.265zM25.624 39.396h12.812v26.265H26.111V52.53H13.133V39.396h12.49zm77.195-13.132H77.195V13.132h11.267V0H64.06v39.396H51.569V13.132h-.263V0H38.174v13.132h.262v13.132H0v52.528h12.813v13.134h12.81v.108h-12.81v13.132h13.132v-.107h12.813V91.926h12.49v13.133h13.133V91.926h12.493v13.133h12.811v.107h13.134V92.034H90.005v-.108h12.814V78.792h12.811V26.264h-12.811z"></path></svg><svg viewBox="0 0 115.62875 105.05874" height="112.063" width="123.337" id="invader2" y="890"><path d="M102.496 65.661H77.193V39.396h25.303v26.265zM13.133 39.396h25.302v26.265H13.133V39.396zm89.683-13.132V13.132H77.193V0H64.06v13.132H51.569V0H38.435v13.132H12.813v13.132H0v52.528h12.813v13.134h12.812v13.133h13.131V91.926h12.492v13.133H64.38V91.926h12.493v13.133h13.132V91.926h12.811V78.792h12.813V26.264h-12.813z"></path></svg><svg viewBox="0 0 110.16375 100.1975" height="106.877" width="117.508" id="invader3" y="1003"><path d="M25.282 62.661V48.625H36.62V62.661H25.282zM85.854 37.64V62.66H73.545V49.234h12.206V37.639h.103zm12.512 0h-.407V25.127H85.75V12.615H73.545v-.103h24.414V0H73.24v.102H61.034v25.025H49.13V.102H36.62V.56H12.207V13.07h12.207v12.056H12.207V37.64H0v37.535h12.207v12.512h12.207v12.511h12.511v-12.51H73.24v12.51h12.511v-12.51H97.96V75.173h12.205V37.639H98.366z"></path></svg><svg viewBox="0 0 115.62875 105.06125" height="112.065" width="123.337" id="invader4" y="1110"><path d="M13.131 39.397H38.435V52.53H13.131V39.397zm89.364 13.133H77.191V39.397H102.495V52.53zm.321-26.265V0H76.873v13.132H64.059v13.133H51.568V13.132H37.903V0H24.77v.215H12.813V26.265H0v65.664H25.624v13.132h13.132V91.93h12.492v13.132H64.38V91.93h12.493v13.132h13.132V91.93H115.629V26.265h-12.813z"></path></svg><svg viewBox="0 0 102.81625 105.06125" height="112.065" width="109.671" id="invader5" y="1223"><path d="M25.623 26.265H38.434V39.4H13.131V26.265h12.492zm64.06 0V39.4H64.38V26.265H89.684zm.322-13.133H77.191V0H25.622v13.132H0V52.53h12.81v13.132h12.813v13.134H12.81V91.93H0v13.132h13.131V91.93h12.813V78.796h12.491V91.93H64.38V78.796h12.492V91.93h12.812v13.132h13.132V91.93H90.005V78.796H77.191V65.662h12.814V52.53h12.811V13.132H90.005z"></path></svg><svg width="111.615" height="97.712" viewBox="0 0 104.63875 91.604998" id="invader6" y="1336"><path d="M74.849 45.801h14.523V61.07H74.85V45.801zm-59.582 0H29.79V61.07H15.267V45.801zm74.478-15.266V15.266H74.849V0H59.583v15.266H45.059V0H29.79v15.266H14.896v15.269H0v61.07h15.268V76.336H29.79v15.269H45.06V76.336h14.524v15.269h15.266V76.336h14.524v15.269h15.266v-61.07H89.745z"></path></svg><svg width="123.337" height="112.885" viewBox="0 0 115.62875 105.83" id="invader7" y="1434"><path d="M26.535 39.649V66.078h11.901V39.648H26.535zm63.47 0H77.194V66.078h12.92V39.648h-.109zm12.812 39.644v13.214H77.194v.106H102.817v13.217H76.874v-.11H64.06V92.508H51.57v13.212H38.436v-.48H12.811V79.293H0V26.43h12.811V13.216h12.814V0h13.131v13.216h38.118V0h13.131v13.216h12.812v13.215h12.812v52.861h-12.812z"></path></svg><svg width="123.341" height="112.063" viewBox="0 0 115.6325 105.05875" id="invader8" y="1547"><path d="M13.133 39.397h25.306V52.53H25.626v13.132H13.133V39.397zm89.363 13.133h-12.81v13.132H77.194V39.397h25.302V52.53zm.322-26.265V13.132H90.006V0H64.06v13.132H51.57V0H25.626v13.132H12.815v13.133H0v78.794h13.133V91.926h12.493v13.133H38.76V91.926h12.49v13.133h13.134V91.926h12.49v13.133h13.133V91.926h12.49v13.133h13.137V26.265h-12.815z"></path></svg><svg viewBox="0 0 102.8175 105.06125" height="112.065" width="109.672" id="invader9" y="1660"><path d="M25.945 39.398h12.491V52.53H25.945V39.398zM76.872 52.53h-12.49V39.398h12.49V52.53zm12.813-39.397H102.818V0H64.06v13.133H38.757V0H0v13.133h25.625v13.132H12.812V52.53H0V78.793h13.132v-13.13h12.493V91.926H12.812v13.135H90.005V91.926H77.194V65.663h12.491v13.13h13.133V52.53H90.004V26.265H77.194V13.133h12.491z"></path></svg><svg viewBox="0 0 194.875 141.71875" height="151.167" width="207.867" id="invaderO11" y="1773"><path style="marker:none" d="M35.438 0v17.719h17.718V0H35.438zm17.718 17.719v17.718H35.438v17.72h-17.72v17.718H0V124h17.719V88.594h17.718V124h17.72v-17.719H141.718V124h17.719V88.594h17.718V124h17.719V70.875h-17.719V53.156h-17.719V35.438H141.72v-17.72H124v17.72H70.875v-17.72H53.156zm88.563 0h17.719V0h-17.72v17.719zm0 106.281H106.28v17.719h35.438V124zm-88.563 0v17.719h35.438V124H53.156zm0-70.844h17.719v17.719H53.156V53.156zm70.844 0h17.719v17.719H124V53.156z" color="#000" overflow="visible"></path></svg><svg viewBox="0 0 194.875 141.71875" height="151.167" width="207.867" id="invaderO12" y="1925"><path style="marker:none" d="M35.438 0v17.719h17.718V0H35.438zm17.718 17.719v17.718H35.438v17.72h-17.72V17.718H0v70.875h17.719v17.687h17.718V124h17.72v-17.719H141.718V124h17.719v-17.719h17.718V88.594h17.719V17.718h-17.719v35.438h-17.719V35.438H141.72v-17.72H124v17.72H70.875v-17.72H53.156zm88.563 0h17.719V0h-17.72v17.719zM159.438 124v17.719h17.718V124h-17.719zm-124 0h-17.72v17.719h17.72V124zm17.718-70.844h17.719v17.719H53.156V53.156zm70.844 0h17.719v17.719H124V53.156z" color="#000" overflow="visible"></path></svg><svg viewBox="0 0 141.71875 141.71875" height="151.167" width="151.167" id="invaderO21" y="2077"><path style="marker:none" d="M53.156 0v17.719H35.437v17.718H17.72v17.72H0v35.437h35.437v17.687h17.72V88.594h35.437v17.687h17.687V88.594h35.438V53.156H124V35.438h-17.719v-17.72H88.594V0H53.156zm53.125 106.281V124H124v-17.719h-17.719zM124 124v17.719h17.719V124H124zm-17.719 0H88.594v17.719h17.687V124zm-17.687 0v-17.719H53.156V124h35.438zm-35.438 0H35.437v17.719h17.72V124zm-17.719 0v-17.719H17.72V124h17.718zm-17.718 0H0v17.719h17.719V124zm17.718-70.844h17.72v17.719h-17.72V53.156zm53.157 0h17.687v17.719H88.594V53.156z" color="#000" overflow="visible"></path></svg><svg width="141.75" height="141.719" id="invaderO22" y="2229"><path style="marker:none" d="M53.156 0v17.719H35.438v17.718h-17.72v17.72H0v35.437h17.719v17.687h17.718V88.594h17.72v17.687h35.437V88.594h17.719v17.687h17.718V88.594h17.719V53.156h-17.719V35.438h-17.719v-17.72H88.594V0H53.156zm70.875 106.281V124h17.719v-17.719h-17.719zm0 17.719h-17.719v17.719h17.72V124zM17.72 106.281H0V124h17.719v-17.719zm0 17.719v17.719h17.718V124H17.72zm17.718-70.844h17.72v17.719h-17.72V53.156zm53.157 0h17.719v17.719h-17.72V53.156z" color="#000" overflow="visible"></path></svg></svg>