<svg xmlns="http://www.w3.org/2000/svg" viewBox="0 0 115.63 105.166" height="112.177" width="123.339"><path d="M102.496 65.661H90.171V52.53H77.195V39.396h25.301v26.265zM25.624 39.396h12.812v26.265H26.111V52.53H13.133V39.396h12.49zm77.195-13.132H77.195V13.132h11.267V0H64.06v39.396H51.569V13.132h-.263V0H38.174v13.132h.262v13.132H0v52.528h12.813v13.134h12.81v.108h-12.81v13.132h13.132v-.107h12.813V91.926h12.49v13.133h13.133V91.926h12.493v13.133h12.811v.107h13.134V92.034H90.005v-.108h12.814V78.792h12.811V26.264h-12.811z"/></svg>