<?xml version="1.0" encoding="UTF-8" standalone="no"?>
<!-- Created with Inkscape (http://www.inkscape.org/) -->

<svg
   xmlns:dc="http://purl.org/dc/elements/1.1/"
   xmlns:cc="http://creativecommons.org/ns#"
   xmlns:rdf="http://www.w3.org/1999/02/22-rdf-syntax-ns#"
   xmlns:svg="http://www.w3.org/2000/svg"
   xmlns="http://www.w3.org/2000/svg"
   xmlns:sodipodi="http://sodipodi.sourceforge.net/DTD/sodipodi-0.dtd"
   xmlns:inkscape="http://www.inkscape.org/namespaces/inkscape"
   width="29.017384mm"
   height="29.650267mm"
   viewBox="0 0 102.8175 105.06"
   id="svg13044"
   version="1.1"
   inkscape:version="0.91 r13725"
   sodipodi:docname="invader11.svg">
  <defs
     id="defs13046" />
  <sodipodi:namedview
     id="base"
     pagecolor="#ffffff"
     bordercolor="#666666"
     borderopacity="1.0"
     inkscape:pageopacity="0.0"
     inkscape:pageshadow="2"
     inkscape:zoom="0.35"
     inkscape:cx="-299.30554"
     inkscape:cy="-96.041425"
     inkscape:document-units="px"
     inkscape:current-layer="layer1"
     showgrid="false"
     fit-margin-top="0"
     fit-margin-left="0"
     fit-margin-right="0"
     fit-margin-bottom="0"
     inkscape:window-width="1920"
     inkscape:window-height="1051"
     inkscape:window-x="1680"
     inkscape:window-y="80"
     inkscape:window-maximized="1" />
  <metadata
     id="metadata13049">
    <rdf:RDF>
      <cc:Work
         rdf:about="">
        <dc:format>image/svg+xml</dc:format>
        <dc:type
           rdf:resource="http://purl.org/dc/dcmitype/StillImage" />
        <dc:title></dc:title>
      </cc:Work>
    </rdf:RDF>
  </metadata>
  <g
     inkscape:label="Vrstva 1"
     inkscape:groupmode="layer"
     id="layer1"
     transform="translate(-217.16268,-331.26078)">
    <g
       id="g288"
       transform="matrix(1.25,0,0,-1.25,306.84643,383.79078)">
      <path
         d="m 0,0 0,-10.506 -9.993,0 -0.256,0 -9.993,0 0,10.506 9.993,0 0.256,0 L 0,0 Z m -51.247,0 0.256,0 9.994,0 0,-10.506 -9.994,0 -0.256,0 -9.994,0 0,10.506 9.994,0 z m 51.504,21.011 0,10.507 10.25,0 0,10.506 -10.507,0 0,-10.506 -10.249,0 0,-10.507 -9.993,0 -0.257,0 -9.992,0 -0.257,0 -9.995,0 -0.254,0 -9.994,0 0,10.507 -10.25,0 0,10.506 -10.506,0 0,-10.506 10.248,0 0,-10.507 10.252,0 0,-10.506 -9.994,0 -0.258,0 -10.248,0 0,-10.505 0,-10.506 0,-10.506 10.248,0 0,-10.505 10.252,0 0,-10.507 10.25,0 0.254,0 9.995,0 0.257,0 9.992,0 0.257,0 10.249,0 0,10.507 10.25,0 0,10.505 10.25,0 0,10.506 0,10.506 0,10.505 -10.25,0 -0.257,0 -9.993,0 0,10.506 10.25,0 z"
         style="fill:#000000;fill-opacity:1;fill-rule:nonzero;stroke:none"
         id="path290"
         inkscape:connector-curvature="0" />
    </g>
  </g>
</svg>
