<?xml version="1.0" encoding="UTF-8" standalone="no"?>
<!-- Created with Inkscape (http://www.inkscape.org/) -->

<svg
   xmlns:dc="http://purl.org/dc/elements/1.1/"
   xmlns:cc="http://creativecommons.org/ns#"
   xmlns:rdf="http://www.w3.org/1999/02/22-rdf-syntax-ns#"
   xmlns:svg="http://www.w3.org/2000/svg"
   xmlns="http://www.w3.org/2000/svg"
   xmlns:sodipodi="http://sodipodi.sourceforge.net/DTD/sodipodi-0.dtd"
   xmlns:inkscape="http://www.inkscape.org/namespaces/inkscape"
   width="29.53138mm"
   height="25.852966mm"
   viewBox="0 0 104.63875 91.604998"
   id="svg15870"
   version="1.1"
   inkscape:version="0.91 r13725"
   sodipodi:docname="invader6.svg">
  <defs
     id="defs15872" />
  <sodipodi:namedview
     id="base"
     pagecolor="#ffffff"
     bordercolor="#666666"
     borderopacity="1.0"
     inkscape:pageopacity="0.0"
     inkscape:pageshadow="2"
     inkscape:zoom="0.35"
     inkscape:cx="-218.39491"
     inkscape:cy="122.94536"
     inkscape:document-units="px"
     inkscape:current-layer="layer1"
     showgrid="false"
     fit-margin-top="0"
     fit-margin-left="0"
     fit-margin-right="0"
     fit-margin-bottom="0"
     inkscape:window-width="1920"
     inkscape:window-height="1051"
     inkscape:window-x="1680"
     inkscape:window-y="80"
     inkscape:window-maximized="1" />
  <metadata
     id="metadata15875">
    <rdf:RDF>
      <cc:Work
         rdf:about="">
        <dc:format>image/svg+xml</dc:format>
        <dc:type
           rdf:resource="http://purl.org/dc/dcmitype/StillImage" />
        <dc:title></dc:title>
      </cc:Work>
    </rdf:RDF>
  </metadata>
  <g
     inkscape:label="Vrstva 1"
     inkscape:groupmode="layer"
     id="layer1"
     transform="translate(-136.25205,-563.70256)">
    <path
       d="m 211.1008,609.50381 14.52375,0 0,15.26875 -14.52375,0 0,-15.26875 z m -59.58125,0 14.5225,0 0,15.26875 -14.5225,0 0,-15.26875 z m 74.4775,-15.26625 0,-15.26875 -14.89625,0 0,-15.26625 -15.26625,0 0,15.26625 -14.52375,0 0,-15.26625 -15.2675,0 0,15.26625 -14.895,0 0,15.26875 -14.89625,0 0,15.26625 0,15.26875 0,15.26625 0,15.26875 15.2675,0 0,-15.26875 14.52375,0 0,15.26875 15.2675,0 0,-15.26875 14.52375,0 0,15.26875 15.26625,0 0,-15.26875 14.52375,0 0,15.26875 15.26625,0 0,-15.26875 0,-15.26625 0,-15.26875 0,-15.26625 -14.89375,0 z"
       style="fill:#000000;fill-opacity:1;fill-rule:nonzero;stroke:none"
       id="path1128"
       inkscape:connector-curvature="0" />
  </g>
</svg>
