<?xml version="1.0" encoding="UTF-8" standalone="no"?>
<svg
   xmlns:dc="http://purl.org/dc/elements/1.1/"
   xmlns:cc="http://creativecommons.org/ns#"
   xmlns:rdf="http://www.w3.org/1999/02/22-rdf-syntax-ns#"
   xmlns:svg="http://www.w3.org/2000/svg"
   xmlns="http://www.w3.org/2000/svg"
   version="1.1"
   id="svg4711"
   viewBox="0 0 194.875 141.71875"
   height="39.996181mm"
   width="54.998055mm">
  <defs
     id="defs4713" />
  <metadata
     id="metadata4716">
    <rdf:RDF>
      <cc:Work
         rdf:about="">
        <dc:format>image/svg+xml</dc:format>
        <dc:type
           rdf:resource="http://purl.org/dc/dcmitype/StillImage" />
        <dc:title></dc:title>
      </cc:Work>
    </rdf:RDF>
  </metadata>
  <g
     transform="translate(-176.84821,-427.21712)"
     id="layer1">
    <path
       style="color:#000000;display:inline;overflow:visible;visibility:visible;opacity:1;fill:#000000;fill-opacity:1;fill-rule:nonzero;stroke:none;stroke-width:2;marker:none;enable-background:accumulate"
       d="m 212.28571,427.21712 0,17.71875 17.71875,0 0,-17.71875 -17.71875,0 z m 17.71875,17.71875 0,17.71875 -17.71875,0 0,17.71875 -17.71875,0 0,17.71875 -17.71875,0 0,17.71875 0,17.6875 0,17.71875 17.71875,0 0,-17.71875 0,-17.6875 17.71875,0 0,17.6875 0,17.71875 17.71875,0 0,-17.71875 17.71875,0 17.71875,0 17.6875,0 17.71875,0 17.71875,0 0,17.71875 17.71875,0 0,-17.71875 0,-17.6875 17.71875,0 0,17.6875 0,17.71875 17.71875,0 0,-17.71875 0,-17.6875 0,-17.71875 -17.71875,0 0,-17.71875 -17.71875,0 0,-17.71875 -17.71875,0 0,-17.71875 -17.71875,0 0,17.71875 -17.71875,0 -17.6875,0 -17.71875,0 0,-17.71875 -17.71875,0 z m 88.5625,0 17.71875,0 0,-17.71875 -17.71875,0 0,17.71875 z m 0,106.28125 -17.71875,0 -17.71875,0 0,17.71875 17.71875,0 17.71875,0 0,-17.71875 z m -88.5625,0 0,17.71875 17.71875,0 17.71875,0 0,-17.71875 -17.71875,0 -17.71875,0 z m 0,-70.84375 17.71875,0 0,17.71875 -17.71875,0 0,-17.71875 z m 70.84375,0 17.71875,0 0,17.71875 -17.71875,0 0,-17.71875 z"
       id="invader-2" />
  </g>
</svg>
