<?xml version="1.0" encoding="UTF-8" standalone="no"?>
<svg
   xmlns:dc="http://purl.org/dc/elements/1.1/"
   xmlns:cc="http://creativecommons.org/ns#"
   xmlns:rdf="http://www.w3.org/1999/02/22-rdf-syntax-ns#"
   xmlns:svg="http://www.w3.org/2000/svg"
   xmlns="http://www.w3.org/2000/svg"
   version="1.1"
   id="svg14175"
   viewBox="0 0 102.8175 105.06125"
   height="29.65062mm"
   width="29.017384mm">
  <defs
     id="defs14177" />
  <metadata
     id="metadata14180">
    <rdf:RDF>
      <cc:Work
         rdf:about="">
        <dc:format>image/svg+xml</dc:format>
        <dc:type
           rdf:resource="http://purl.org/dc/dcmitype/StillImage" />
        <dc:title></dc:title>
      </cc:Work>
    </rdf:RDF>
  </metadata>
  <g
     transform="translate(-422.87696,-459.83158)"
     id="layer1">
    <path
       id="path868"
       style="fill:#000000;fill-opacity:1;fill-rule:nonzero;stroke:none"
       d="m 448.82196,499.22908 12.49125,0 0,13.1325 -12.49125,0 0,-13.1325 z m 50.9275,13.1325 -12.49125,0 0,-13.1325 12.49125,0 0,13.1325 z m 12.8125,-39.3975 0.32,0 12.8125,0 0,-13.1325 -12.8125,0 -0.32,0 -12.49125,0 -0.32125,0 -12.8125,0 0,13.1325 -12.49125,0 -0.32,0 -12.49125,0 0,-13.1325 -12.8125,0 -0.32,0 -12.4925,0 -0.32,0 -12.8125,0 0,13.1325 12.8125,0 0.32,0 12.4925,0 0,13.1325 -12.8125,0 0,13.1325 0,13.1325 -12.8125,0 0,13.1325 0,13.13125 13.1325,0 0,-13.13125 12.4925,0 0,13.13125 0,13.1325 -12.8125,0 0,13.135 12.8125,0 0.32,0 12.49125,0 0.32125,0 12.49125,0 0.32,0 12.49125,0 0.32125,0 12.49125,0 0.32125,0 12.81125,0 0,-13.135 -12.81125,0 0,-13.1325 0,-13.13125 12.49125,0 0,13.13125 13.1325,0 0,-13.13125 0,-13.1325 -12.8125,0 0,-13.1325 0,-13.1325 -12.81125,0 0,-13.1325 12.49125,0 z" />
  </g>
</svg>
