<?xml version="1.0" encoding="UTF-8" standalone="no"?>
<!-- Created with Inkscape (http://www.inkscape.org/) -->

<svg
   xmlns:dc="http://purl.org/dc/elements/1.1/"
   xmlns:cc="http://creativecommons.org/ns#"
   xmlns:rdf="http://www.w3.org/1999/02/22-rdf-syntax-ns#"
   xmlns:svg="http://www.w3.org/2000/svg"
   xmlns="http://www.w3.org/2000/svg"
   xmlns:sodipodi="http://sodipodi.sourceforge.net/DTD/sodipodi-0.dtd"
   xmlns:inkscape="http://www.inkscape.org/namespaces/inkscape"
   width="29.017384mm"
   height="29.649914mm"
   viewBox="0 0 102.8175 105.05875"
   id="svg11916"
   version="1.1"
   inkscape:version="0.91 r13725"
   sodipodi:docname="invader13.svg">
  <defs
     id="defs11918" />
  <sodipodi:namedview
     id="base"
     pagecolor="#ffffff"
     bordercolor="#666666"
     borderopacity="1.0"
     inkscape:pageopacity="0.0"
     inkscape:pageshadow="2"
     inkscape:zoom="0.35"
     inkscape:cx="-370.73411"
     inkscape:cy="-30.327765"
     inkscape:document-units="px"
     inkscape:current-layer="layer1"
     showgrid="false"
     fit-margin-top="0"
     fit-margin-left="0"
     fit-margin-right="0"
     fit-margin-bottom="0"
     inkscape:window-width="1920"
     inkscape:window-height="1051"
     inkscape:window-x="1680"
     inkscape:window-y="80"
     inkscape:window-maximized="1" />
  <metadata
     id="metadata11921">
    <rdf:RDF>
      <cc:Work
         rdf:about="">
        <dc:format>image/svg+xml</dc:format>
        <dc:type
           rdf:resource="http://purl.org/dc/dcmitype/StillImage" />
        <dc:title></dc:title>
      </cc:Work>
    </rdf:RDF>
  </metadata>
  <g
     inkscape:label="Vrstva 1"
     inkscape:groupmode="layer"
     id="layer1"
     transform="translate(-288.59125,-396.97569)">
    <path
       d="m 352.97125,423.24069 12.4925,0 0,13.1325 -12.4925,0 0,-13.1325 z m -38.435,0 12.49125,0 0,13.1325 -12.49125,0 0,-13.1325 z m 64.06125,13.1325 0,-13.1325 0,-13.1325 -12.8125,0 0,-13.1325 -13.13375,0 0,13.1325 -12.49125,0 -0.32,0 -12.49125,0 0,-13.1325 -13.13375,0 0,13.1325 -12.81125,0 0,13.1325 0,13.1325 -12.8125,0 0,13.1325 0,13.13125 12.8125,0 0,13.1325 0,13.1325 12.81125,0 0,13.1325 13.13375,0 0,-13.1325 0,-13.1325 0,-13.1325 12.49125,0 0.32,0 12.49125,0 0,13.1325 0,13.1325 0,13.1325 13.13375,0 0,-13.1325 12.8125,0 0,-13.1325 0,-13.1325 12.81125,0 0,-13.13125 0,-13.1325 -12.81125,0 z"
       style="fill:#000000;fill-opacity:1;fill-rule:nonzero;stroke:none"
       id="path120"
       inkscape:connector-curvature="0" />
  </g>
</svg>
