<?xml version="1.0" encoding="UTF-8" standalone="no"?>
<svg
   xmlns:dc="http://purl.org/dc/elements/1.1/"
   xmlns:cc="http://creativecommons.org/ns#"
   xmlns:rdf="http://www.w3.org/1999/02/22-rdf-syntax-ns#"
   xmlns:svg="http://www.w3.org/2000/svg"
   xmlns="http://www.w3.org/2000/svg"
   version="1.1"
   id="svg10222"
   viewBox="0 0 115.63 105.16625"
   height="29.680252mm"
   width="32.633354mm">
  <defs
     id="defs10224" />
  <metadata
     id="metadata10227">
    <rdf:RDF>
      <cc:Work
         rdf:about="">
        <dc:format>image/svg+xml</dc:format>
        <dc:type
           rdf:resource="http://purl.org/dc/dcmitype/StillImage" />
        <dc:title></dc:title>
      </cc:Work>
    </rdf:RDF>
  </metadata>
  <g
     transform="translate(-67.89929,-348.35051)"
     id="layer1">
    <g
       transform="matrix(1.25,0,0,-1.25,170.39554,414.01176)"
       id="g548">
      <path
         id="path550"
         style="fill:#000000;fill-opacity:1;fill-rule:nonzero;stroke:none"
         d="m 0,0 -9.86,0 0,10.505 -10.381,0 0,10.507 9.992,0 0.256,0 9.993,0 L 0,10.505 0,0 Z m -61.498,21.012 0.257,0 9.993,0 0,-10.507 0,-10.505 -9.86,0 0,10.505 -10.383,0 0,10.507 9.993,0 z m 61.756,10.506 -0.258,0 -9.993,0 -0.256,0 -9.992,0 0,10.505 9.014,0 0,10.506 -9.014,0 -1.493,0 -9.015,0 0,-10.506 0,-10.505 0,-10.506 -9.993,0 0,10.506 0,10.505 -0.21,0 0,10.506 -10.506,0 0,-10.506 0.21,0 0,-10.505 -9.993,0 -0.257,0 -9.993,0 -0.256,0 -10.25,0 0,-10.506 0,-10.507 0,-10.505 0,-10.505 10.25,0 0,-10.507 10.249,0 0,-0.086 -10.249,0 0,-10.506 10.506,0 0,0.086 10.25,0 0,10.506 9.993,0 0,-10.506 10.506,0 0,10.506 9.994,0 0,-10.506 10.249,0 0,-0.086 10.507,0 0,10.506 -10.251,0 0,0.086 10.251,0 0,10.507 10.249,0 0,10.505 0,10.505 0,10.507 0,10.506 -10.249,0 z" />
    </g>
  </g>
</svg>
