<?xml version="1.0" encoding="UTF-8" standalone="no"?>
<svg
   xmlns:dc="http://purl.org/dc/elements/1.1/"
   xmlns:cc="http://creativecommons.org/ns#"
   xmlns:rdf="http://www.w3.org/1999/02/22-rdf-syntax-ns#"
   xmlns:svg="http://www.w3.org/2000/svg"
   xmlns="http://www.w3.org/2000/svg"
   version="1.1"
   id="svg9620"
   viewBox="0 0 115.62875 105.05874"
   height="29.649912mm"
   width="32.633003mm">
  <defs
     id="defs9622" />
  <metadata
     id="metadata9625">
    <rdf:RDF>
      <cc:Work
         rdf:about="">
        <dc:format>image/svg+xml</dc:format>
        <dc:type
           rdf:resource="http://purl.org/dc/dcmitype/StillImage" />
        <dc:title></dc:title>
      </cc:Work>
    </rdf:RDF>
  </metadata>
  <g
     transform="translate(-247.89991,-499.83283)"
     id="layer1">
    <path
       id="path462"
       style="fill:#000000;fill-opacity:1;fill-rule:nonzero;stroke:none"
       d="m 350.39616,565.49407 -12.49125,0 -0.32,0 -12.4925,0 0,-13.13125 0,-13.13375 12.4925,0 0.32,0 12.49125,0 0,13.13375 0,13.13125 z m -89.36375,-26.265 12.4925,0 0.31875,0 12.49125,0 0,13.13375 0,13.13125 -12.49125,0 -0.31875,0 -12.4925,0 0,-13.13125 0,-13.13375 z m 89.68375,-13.1325 0,-13.13125 -12.81125,0 -0.32,0 -12.4925,0 0,-13.13249 -13.1325,0 0,13.13249 -12.49125,0 0,-13.13249 -13.13375,0 0,13.13249 -12.49125,0 -0.31875,0 -12.8125,0 0,13.13125 -12.8125,0 0,13.1325 0,13.13375 0,13.13125 0,13.13125 12.8125,0 0,13.13375 12.8125,0 0,13.1325 13.13125,0 0,-13.1325 12.49125,0 0,13.1325 13.1325,0 0,-13.1325 12.4925,0 0,13.1325 13.1325,0 0,-13.1325 12.81125,0 0,-13.13375 12.8125,0 0,-13.13125 0,-13.13125 0,-13.13375 0,-13.1325 -12.8125,0 z" />
  </g>
</svg>
