<?xml version="1.0" encoding="UTF-8" standalone="no"?>
<svg
   xmlns:dc="http://purl.org/dc/elements/1.1/"
   xmlns:cc="http://creativecommons.org/ns#"
   xmlns:rdf="http://www.w3.org/1999/02/22-rdf-syntax-ns#"
   xmlns:svg="http://www.w3.org/2000/svg"
   xmlns="http://www.w3.org/2000/svg"
   version="1.1"
   id="svg10788"
   viewBox="0 0 115.62749 105.16625"
   height="29.680252mm"
   width="32.632648mm">
  <defs
     id="defs10790" />
  <metadata
     id="metadata10793">
    <rdf:RDF>
      <cc:Work
         rdf:about="">
        <dc:format>image/svg+xml</dc:format>
        <dc:type
           rdf:resource="http://purl.org/dc/dcmitype/StillImage" />
        <dc:title></dc:title>
      </cc:Work>
    </rdf:RDF>
  </metadata>
  <g
     transform="translate(-350.75768,-494.06479)"
     id="layer1">
    <g
       transform="matrix(1.25,0,0,-1.25,376.38018,533.56979)"
       id="g696">
      <path
         id="path698"
         style="fill:#000000;fill-opacity:1;fill-rule:nonzero;stroke:none"
         d="m 0,0 0.257,0 9.994,0 0,-10.506 -10.204,0 -0.257,0 -9.783,0 L -9.993,0 0,0 Z m 30.75,-31.517 -9.994,0 0,10.506 9.994,0 0,-10.506 z M 51.25,0 l 0.256,0 9.993,0 0,-10.506 -9.861,0 -0.257,0 -10.125,0 0,10.506 9.994,0 z m 10.506,10.506 -0.257,0 -9.993,0 -0.256,0 -9.994,0 0,10.506 0,0.086 9.994,0 0.256,0 10.25,0 0,10.506 -10.25,0 -0.256,0 -10.251,0 0,-0.086 -10.249,0 0,-10.506 -9.994,0 0,10.506 -10.505,0 0,-0.256 -9.994,0 -0.257,0 -10.248,0 0,-0.342 0,-10.164 0,-0.342 10.248,0 0.257,0 9.994,0 0,-9.908 -9.994,0 -0.257,0 -9.993,0 -0.255,0 -10.25,0 0,-10.506 0,-10.506 0,-10.505 0,-10.506 10.25,0 0,-10.506 10.248,0 0,-10.506 10.508,0 0,10.506 9.992,0 0,-10.506 10.506,0 0,10.506 9.993,0 0,-10.506 10.507,0 0,10.506 10.25,0 0,10.506 10.248,0 0,10.506 0,10.505 0,10.506 0,10.506 -10.248,0 z" />
    </g>
  </g>
</svg>
