<?xml version="1.0" encoding="UTF-8" standalone="no"?>
<svg
   xmlns:dc="http://purl.org/dc/elements/1.1/"
   xmlns:cc="http://creativecommons.org/ns#"
   xmlns:rdf="http://www.w3.org/1999/02/22-rdf-syntax-ns#"
   xmlns:svg="http://www.w3.org/2000/svg"
   xmlns="http://www.w3.org/2000/svg"
   version="1.1"
   id="svg12480"
   viewBox="0 0 102.8175 105.06"
   height="29.650267mm"
   width="29.017384mm">
  <defs
     id="defs12482" />
  <metadata
     id="metadata12485">
    <rdf:RDF>
      <cc:Work
         rdf:about="">
        <dc:format>image/svg+xml</dc:format>
        <dc:type
           rdf:resource="http://purl.org/dc/dcmitype/StillImage" />
        <dc:title></dc:title>
      </cc:Work>
    </rdf:RDF>
  </metadata>
  <g
     transform="translate(-531.44839,-414.11792)"
     id="layer1">
    <path
       id="path36"
       style="fill:#000000;fill-opacity:1;fill-rule:nonzero;stroke:none"
       d="m 569.88464,453.51542 -12.49125,0 0,-13.1325 12.49125,0 0,13.1325 z m 38.4375,0 -12.4925,0 0,-13.1325 12.4925,0 0,13.1325 z m 13.13125,-26.265 -0.3225,0 -12.49,0 -0.31875,0 -12.4925,0 0,-13.1325 -12.8125,0 -0.32,0 -12.8125,0 0,13.1325 -12.49125,0 -0.32125,0 -12.49125,0 -0.32125,0 -12.81125,0 0,13.13375 0,13.13125 0,13.1325 12.81125,0 0,13.1325 12.8125,0 0,13.1325 -12.8125,0 0,13.13125 -12.81125,0 0,13.13375 13.1325,0 0,-13.13375 12.49125,0 0,13.13375 13.1325,0 0,-13.13375 0,-13.13125 12.4925,0 0.32,0 12.49125,0 0,13.13125 0,13.13375 13.1325,0 0,-13.13375 12.49,0 0,13.13375 13.135,0 0,-13.13375 -12.8125,0 0,-13.13125 -12.8125,0 0,-13.1325 12.8125,0 0,-13.1325 12.8125,0 0,-13.1325 0,-13.13125 0,-13.13375 -12.8125,0 z" />
  </g>
</svg>
