<?xml version="1.0" encoding="UTF-8" standalone="no"?>
<svg
   xmlns:dc="http://purl.org/dc/elements/1.1/"
   xmlns:cc="http://creativecommons.org/ns#"
   xmlns:rdf="http://www.w3.org/1999/02/22-rdf-syntax-ns#"
   xmlns:svg="http://www.w3.org/2000/svg"
   xmlns="http://www.w3.org/2000/svg"
   version="1.1"
   id="svg6742"
   viewBox="0 0 110.16375 100.1975"
   height="28.277962mm"
   width="31.090658mm">
  <defs
     id="defs6744" />
  <metadata
     id="metadata6747">
    <rdf:RDF>
      <cc:Work
         rdf:about="">
        <dc:format>image/svg+xml</dc:format>
        <dc:type
           rdf:resource="http://purl.org/dc/dcmitype/StillImage" />
        <dc:title></dc:title>
      </cc:Work>
    </rdf:RDF>
  </metadata>
  <g
     transform="translate(-278.83634,-448.44441)"
     id="layer1">
    <g
       transform="matrix(1.25,0,0,-1.25,304.11884,511.10566)"
       id="g1384">
      <path
         id="path1386"
         style="fill:#000000;fill-opacity:1;fill-rule:nonzero;stroke:none"
         d="m 0,0 0,10.01 0,1.219 9.07,0 0,-1.219 L 9.07,0 0,0 Z m 48.457,20.018 0,-10.008 0,-10.01 -0.082,0 -0.244,0 -9.521,0 0,10.01 0,0.732 9.765,0 0,9.276 0.082,0 z m 10.01,0 -0.326,0 0,10.009 -9.766,0 0,10.01 -9.765,0 0,0.082 9.521,0 0.244,0 9.766,0 0,10.01 -9.766,0 -0.244,0 -9.765,0 0,-0.082 -9.765,0 0,-10.01 0,-10.01 -9.522,0 0,10.01 0,10.01 -10.009,0 0,-0.365 -9.521,0 -0.244,0 -9.765,0 0,-10.01 9.765,0 0,-9.645 -9.765,0 0,-10.009 -1.178,0 -8.588,0 0,-10.008 0,-10.01 0,-10.01 9.766,0 0,-10.01 9.765,0 0,-10.009 10.009,0 0,10.009 9.521,0 0.244,0 9.522,0 0.244,0 9.521,0 0,-10.009 10.009,0 0,10.009 9.766,0 0,10.01 9.764,0 0,10.01 0,10.01 0,10.008 -9.438,0 z" />
    </g>
  </g>
  <g
     transform="translate(-278.83634,-448.44441)"
     id="layer2" />
</svg>
