<?xml version="1.0" encoding="UTF-8" standalone="no"?>
<svg
   xmlns:dc="http://purl.org/dc/elements/1.1/"
   xmlns:cc="http://creativecommons.org/ns#"
   xmlns:rdf="http://www.w3.org/1999/02/22-rdf-syntax-ns#"
   xmlns:svg="http://www.w3.org/2000/svg"
   xmlns="http://www.w3.org/2000/svg"
   version="1.1"
   id="svg17000"
   viewBox="0 0 115.62875 105.06125"
   height="29.65062mm"
   width="32.633003mm">
  <defs
     id="defs17002" />
  <metadata
     id="metadata17005">
    <rdf:RDF>
      <cc:Work
         rdf:about="">
        <dc:format>image/svg+xml</dc:format>
        <dc:type
           rdf:resource="http://purl.org/dc/dcmitype/StillImage" />
        <dc:title></dc:title>
      </cc:Work>
    </rdf:RDF>
  </metadata>
  <g
     transform="translate(-330.75705,-485.54587)"
     id="layer1">
    <g
       transform="matrix(1.25,0,0,-1.25,343.8883,524.94337)"
       id="g1298">
      <path
         id="path1300"
         style="fill:#000000;fill-opacity:1;fill-rule:nonzero;stroke:none"
         d="m 0,0 9.994,0 0.256,0 9.993,0 0,-10.506 -9.993,0 -0.256,0 -9.994,0 L 0,0 Z m 71.491,-10.506 -8.969,0 -1.152,0 -0.128,0 -9.224,0 -0.77,0 0,10.506 9.994,0 0.257,0 9.992,0 0,-10.506 z m 0.257,21.012 0,10.506 0,10.506 -10.249,0 -0.257,0 -10.249,0 0,-10.506 -10.251,0 0,-10.506 -9.993,0 0,10.506 -10.249,0 -0.257,0 -0.426,0 0,10.506 -10.506,0 0,-0.172 -9.566,0 0,-10.334 0,-0.172 0,-10.334 -10.25,0 0,-10.506 0,-10.506 0,-10.508 0,-10.504 0,-10.507 10.25,0 0.255,0 9.994,0 0,-10.506 10.506,0 0,10.506 9.993,0 0,-10.506 10.506,0 0,10.506 9.994,0 0,-10.506 10.506,0 0,10.506 9.992,0 0.257,0 10.25,0 0,10.507 0,10.504 0,10.508 0,10.506 0,10.506 -10.25,0 z" />
    </g>
  </g>
</svg>
