<?xml version="1.0" encoding="UTF-8" standalone="no"?>
<!-- Created with Inkscape (http://www.inkscape.org/) -->

<svg
   xmlns:dc="http://purl.org/dc/elements/1.1/"
   xmlns:cc="http://creativecommons.org/ns#"
   xmlns:rdf="http://www.w3.org/1999/02/22-rdf-syntax-ns#"
   xmlns:svg="http://www.w3.org/2000/svg"
   xmlns="http://www.w3.org/2000/svg"
   xmlns:sodipodi="http://sodipodi.sourceforge.net/DTD/sodipodi-0.dtd"
   xmlns:inkscape="http://www.inkscape.org/namespaces/inkscape"
   width="32.63406mm"
   height="29.649914mm"
   viewBox="0 0 115.6325 105.05875"
   id="svg14739"
   version="1.1"
   inkscape:version="0.91 r13725"
   sodipodi:docname="invader8.svg">
  <defs
     id="defs14741" />
  <sodipodi:namedview
     id="base"
     pagecolor="#ffffff"
     bordercolor="#666666"
     borderopacity="1.0"
     inkscape:pageopacity="0.0"
     inkscape:pageshadow="2"
     inkscape:zoom="0.35"
     inkscape:cx="-404.32661"
     inkscape:cy="1.1008053"
     inkscape:document-units="px"
     inkscape:current-layer="layer1"
     showgrid="false"
     fit-margin-top="0"
     fit-margin-left="0"
     fit-margin-right="0"
     fit-margin-bottom="0"
     inkscape:window-width="1920"
     inkscape:window-height="1051"
     inkscape:window-x="1680"
     inkscape:window-y="80"
     inkscape:window-maximized="1" />
  <metadata
     id="metadata14744">
    <rdf:RDF>
      <cc:Work
         rdf:about="">
        <dc:format>image/svg+xml</dc:format>
        <dc:type
           rdf:resource="http://purl.org/dc/dcmitype/StillImage" />
        <dc:title></dc:title>
      </cc:Work>
    </rdf:RDF>
  </metadata>
  <g
     inkscape:label="Vrstva 1"
     inkscape:groupmode="layer"
     id="layer1"
     transform="translate(-322.18375,-428.40426)">
    <g
       id="g952"
       transform="matrix(1.25,0,0,-1.25,335.31625,467.80176)">
      <path
         d="m 0,0 9.995,0 0.256,0 9.994,0 0,-10.506 -10.25,0 0,-10.506 -9.995,0 0,10.506 L 0,0 Z m 71.491,-10.506 -10.248,0 0,-10.506 -9.994,0 0,10.506 0,10.506 9.994,0 0.256,0 9.992,0 0,-10.506 z m 0.257,21.012 0,10.506 -10.249,0 0,10.506 -10.25,0 -0.257,0 -10.25,0 0,-10.506 -9.992,0 0,10.506 -10.249,0 -0.256,0 -10.25,0 0,-10.506 -10.249,0 0,-10.506 -10.252,0 0,-10.506 0,-10.506 0,-10.506 0,-10.506 0,-10.505 0,-10.506 10.506,0 0,10.506 9.995,0 0,-10.506 10.506,0 0,10.506 9.992,0 0,-10.506 10.507,0 0,10.506 9.992,0 0,-10.506 10.507,0 0,10.506 9.992,0 0,-10.506 10.509,0 0,10.506 0,10.505 0,10.506 0,10.506 0,10.506 0,10.506 -10.252,0 z"
         style="fill:#000000;fill-opacity:1;fill-rule:nonzero;stroke:none"
         id="path954"
         inkscape:connector-curvature="0" />
    </g>
  </g>
</svg>
