<?xml version="1.0" encoding="UTF-8" standalone="no"?>
<svg
   xmlns:dc="http://purl.org/dc/elements/1.1/"
   xmlns:cc="http://creativecommons.org/ns#"
   xmlns:rdf="http://www.w3.org/1999/02/22-rdf-syntax-ns#"
   xmlns:svg="http://www.w3.org/2000/svg"
   xmlns="http://www.w3.org/2000/svg"
   id="space-invaders"
   version="1.1"
   width="141.75"
   height="141.71875">
  <metadata
     id="metadata11">
    <rdf:RDF>
      <cc:Work
         rdf:about="">
        <dc:format>image/svg+xml</dc:format>
        <dc:type
           rdf:resource="http://purl.org/dc/dcmitype/StillImage" />
        <dc:title></dc:title>
      </cc:Work>
    </rdf:RDF>
  </metadata>
  <defs
     id="defs9" />
  <path
     style="color:#000000;display:inline;overflow:visible;visibility:visible;opacity:1;fill:#000000;fill-opacity:1;fill-rule:nonzero;stroke:none;stroke-width:2;marker:none;enable-background:accumulate"
     d="m 53.15625,0 0,17.71875 -17.71875,0 0,17.71875 -17.71875,0 0,17.71875 -17.71875,0 0,17.71875 0,17.71875 17.71875,0 0,17.6875 17.71875,0 0,-17.6875 17.71875,0 0,17.6875 17.71875,0 17.71875,0 0,-17.6875 17.71875,0 0,17.6875 17.71875,0 0,-17.6875 17.71875,0 0,-17.71875 0,-17.71875 -17.71875,0 0,-17.71875 -17.71875,0 0,-17.71875 -17.71875,0 L 88.59375,0 70.875,0 53.15625,0 Z m 70.875,106.28125 0,17.71875 17.71875,0 0,-17.71875 -17.71875,0 z m 0,17.71875 -17.71875,0 0,17.71875 17.71875,0 0,-17.71875 z M 17.71875,106.28125 0,106.28125 0,124 l 17.71875,0 0,-17.71875 z m 0,17.71875 0,17.71875 17.71875,0 0,-17.71875 -17.71875,0 z m 17.71875,-70.84375 17.71875,0 0,17.71875 -17.71875,0 0,-17.71875 z m 53.15625,0 17.71875,0 0,17.71875 -17.71875,0 0,-17.71875 z"
     id="invader-4" />
</svg>
